<?xml version="1.0" standalone="no"?><svg xmlns="http://www.w3.org/2000/svg" viewBox="0 0 1440 320"><path fill="#f3f4f5" fill-opacity="1" d="M0,96L34.3,117.3C68.6,139,137,181,206,197.3C274.3,213,343,203,411,192C480,181,549,171,617,165.3C685.7,160,754,160,823,176C891.4,192,960,224,1029,218.7C1097.1,213,1166,171,1234,138.7C1302.9,107,1371,85,1406,74.7L1440,64L1440,320L1405.7,320C1371.4,320,1303,320,1234,320C1165.7,320,1097,320,1029,320C960,320,891,320,823,320C754.3,320,686,320,617,320C548.6,320,480,320,411,320C342.9,320,274,320,206,320C137.1,320,69,320,34,320L0,320Z"></path></svg>